<svg id="Capa_1" data-name="Capa 1" xmlns="http://www.w3.org/2000/svg" viewBox="0 0 641.35 578.47"><path d="M433.92,9.21c101.57,0,203.14.27,304.7-.31,13.9-.08,17.25,4,17.22,17.09q-.62,272.07,0,544.14c0,12.76-2.69,17.27-16.93,17.23q-304-.72-607.92,0c-13.24,0-16.45-3.57-16.42-16.23q.63-272.8,0-545.6c0-14,4.68-16.6,17.7-16.54C232.77,9.42,333.35,9.21,433.92,9.21Zm.19,560.84c95.67,0,191.33-.19,287,.24,12.26.05,17.24-2.08,17.2-15.68q-.73-257-.08-513.92c0-11.55-3.5-14.61-15.12-14.59q-287.75.48-575.49,0C135,26,132.07,29.85,132.1,41.64q.54,256.23,0,512.46c0,12.79,3.43,16.31,16.55,16.24C243.77,569.81,338.94,570.05,434.11,570.05Z" transform="translate(-114.5 -8.9)"/><path d="M353.84,140.94c2.4-11.92,10.71-18.28,16.83-26.4,24.22-32.14,55.51-46,96.12-39.12,4.81.81,9.9-.08,14.84.21,12.87.75,19.86,7.6,20.93,20.1.33,3.84.24,7.73.24,11.59,0,113.67-.19,227.33.25,341,.05,14.2-6,23.54-14.56,34.51-25.1,32-56.48,42.48-96.89,38.5-19.06-1.87-31.61-5.57-38.66-23.89-5.71-14.83-14-28.72-21.95-44.71-7.83,30.79-35.09,43.75-53.51,64-2,2.2-6.25,3.4-9.47,3.44-22.29.29-44.59.54-66.86,0-10.13-.27-15.93-7-18-16.49a34.76,34.76,0,0,1-.37-7.23q0-177.73,0-355.49c0-1,0-1.94,0-2.9,1.11-17.44,49.46-62.3,67.39-62.41,16.84-.11,33.72.59,50.52-.22,14.49-.69,23,5.27,28.77,17.91C336.9,109.45,345.65,125.07,353.84,140.94Zm133,139.15q0-84.19,0-168.38c0-19.35,0-19.35-20.51-19.37-11.4,0-22.86.72-34.18-.19-13.16-1-18.2,2.65-17.82,16.68,1,38.68.29,77.41.39,116.11,0,9.64-.33,19.12-12.45,21.58-11.76,2.39-16.51-5.58-20.93-14.36-21.6-43-43.64-85.73-65.07-128.78-4-8-8.77-11.71-18.16-11.22a348,348,0,0,1-41.61,0c-12.79-.87-17.22,3-17.06,16.12.71,55.15.3,110.31.3,165.47,0,59,.31,118.06-.26,177.09-.11,12.17,3.84,16.52,16.11,15.55,10.34-.81,20.81-.09,31.21-.17,29.05-.22,25.62,2.83,25.73-24.51q.24-57.35,0-114.67c0-8.59,2.27-15.43,11.74-17.68s15.08,2.41,19,10.1c1.77,3.46,3.56,6.91,5.29,10.39,20.84,41.72,41.91,83.34,62.3,125.27,4,8.22,8.78,11.67,18.08,11.27a421.3,421.3,0,0,1,43.09,0c11.95.7,15.09-3.85,15-15C486.58,394.28,486.84,337.18,486.84,280.09ZM205.46,311.84H205c0-34.28.07-68.56-.11-102.85,0-3.84,1.82-10.59-4-10.46s-3.51,6.86-3.51,10.65q-.14,102.85.25,205.7c0,3.74-2.6,10.55,3.68,10.54,5.66,0,4.12-6.68,4.13-10.73C205.51,380.41,205.46,346.13,205.46,311.84Zm15.3-93.94c-8.35,14.41-7.11,173.63,0,184.13Zm-24.07-54c2.76,5.82-3.53,17,4.3,17.09,7.29.09,3.58-11.17,3.66-17.27.08-6.25,2.94-18.16-3-17.8C192.72,146.51,199.4,157.71,196.69,163.93Zm22,11.34c-5.19,10.19-4.81,20.56-2.07,31,.1.37,3.36.53,3.46.23C223.74,196,223,185.63,218.71,175.27ZM217.36,413.4c-2.35,10-5,20.17,1.45,29.5C222.82,432.83,223.74,423,217.36,413.4Z" transform="translate(-114.5 -8.9)"/><path d="M617.06,235.43c-13.33,16.71-26.19,30-49.11,25.84-8.81-1.58-13.54-4.12-13.51-13.35.13-47.81-.1-95.62.19-143.43C554.7,93,573.26,76.11,585,75.54c24-1.15,24-1.15,39.47,22.89,5.17-.41,7.25-5,9.52-8.16,10.62-14.74,25.55-16.12,42-14.84,8.13.63,11.65,4.47,11.66,11.89,0,48.29.16,96.58-.11,144.87,0,8.63-17.8,26.78-26.65,28.63-20.2,4.22-30.12.05-38.62-16.17C621,242.13,619.5,239.7,617.06,235.43Zm63.83-74.27c0-22.73-.36-45.46.15-68.18.28-12.72-8.43-10.4-16.12-10.69-8-.31-14.88-.25-14.34,10.9.64,13.52.26,27.08.06,40.62-.07,4.54,1.74,10.61-4.85,12.2s-8.17-4.33-10.31-8.45c-8.29-15.94-16.34-32-24.45-48-6.11-12.09-17.35-6.82-26.39-6.66-9.21.16-6,8.53-6.07,13.65-.23,43.52.17,87.05-.34,130.57-.13,11.16,6.07,11.38,14.11,10.87,7.34-.47,16.68,2.88,16-10.36-.7-13.5-.29-27.07-.06-40.61.08-5-2.13-11.7,5.08-13.56s8.68,5,11,9.47c8.21,16,16.12,32.12,24.18,48.18,6.12,12.2,17.47,6.45,26.39,6.29s5.79-8.68,5.87-13.81C681.12,202.76,680.92,182,680.89,161.16ZM570.38,141.1l-1.85.24v63.08l1.85,0Zm-7.64-9.43h-1.11v84.41l1.11,0Z" transform="translate(-114.5 -8.9)"/><path d="M550.52,433.13c0-22.74-1-45.54.27-68.21,1.64-28.66,31.52-38.45,54.72-31.13,6.31,2,5.35,8.59,5.36,13.87,0,31.93.61,63.88-.27,95.79-.35,12.46,3.95,15.78,16,15.11,16.8-.92,33.69.09,50.53-.33C688.07,458,691.82,462.45,692,473c.51,30.75-12.31,44.26-43.35,44.26-27.26,0-54.53-.42-81.77.19-12.27.27-16.84-4.11-16.53-16C550.94,478.62,550.51,455.87,550.52,433.13Zm24-16.5c0,22.23.25,44.47-.13,66.7-.14,7.93,2.28,11.14,10.9,11,29.7-.4,59.42-.55,89.11,0,11.69.23,11.1-6.41,10.88-14s2.1-15.87-11-15.33c-17.79.73-35.68-.56-53.45.4-13.46.73-16.93-4.5-16.67-16.84.68-32.86-.18-65.74.41-98.6.24-13-8.34-10.3-15.89-10.57s-14.7-1.09-14.33,10.48C575,372.15,574.52,394.4,574.52,416.63ZM557.4,473.85h1.66V391.08H557.4Zm6.93-11.21,1.16-.59v-65.2l-1.16,0Z" transform="translate(-114.5 -8.9)"/><path d="M622.88,301.6c-19.78,0-39.56.17-59.33-.13-4.8-.07-12.39,2.33-12.22-6.23.14-7.8,7.07-5,11.37-5q57.9-.27,115.79,0c4.79,0,12.51-2.65,12.71,5.59.24,9.67-8.34,6.14-13.39,6.25-18.3.41-36.62.16-54.93.16Z" transform="translate(-114.5 -8.9)"/></svg>